# xmcd CD database file
#
# Track frame offsets:
#	150
#	121649
#	200368
#	220401
#	283752
#
# Disc length: 4436 seconds
#
# Revision: 0
# Processed by: cddbd v1.5.2PL0 Copyright (c) Steve Scherf et al.
# Submitted via: CDex 1.51
#
DISCID=47115205
DTITLE=Miles Davis - Bitches Brew
DYEAR=1969
DGENRE=Jazz
TTITLE0=Bitches Brew
TTITLE1=Spanish Key
TTITLE2=John McLaughlin
TTITLE3=Miles Runs The Voodoo Down
TTITLE4=Sanctuary
EXTD=YEAR: 1969
EXTT0=
EXTT1=
EXTT2=
EXTT3=
EXTT4=
PLAYORDER=
